<svg width="164" height="35" viewBox="0 0 164 35" fill="none" xmlns="http://www.w3.org/2000/svg">
<path d="M148.186 33.9511H138.136V10.1853H147.17L147.612 12.2676C149.158 10.5248 151.676 9.37048 154.79 9.37048C161.062 9.37048 164 13.8294 164 21.3213V33.9511H153.928V21.7513C153.928 19.1031 152.758 18.1978 151.278 18.1978C149.577 18.1978 148.186 19.4879 148.186 22.4756V33.9511Z" fill="black"/>
<path d="M130.515 8.96309C126.805 8.96309 124.972 7.08446 124.972 4.48154C124.972 1.87863 126.783 0 130.538 0C134.337 0 136.148 1.87863 136.148 4.48154C136.148 7.15236 134.337 8.96309 130.515 8.96309ZM135.529 33.9511H125.48V10.4117C128.616 10.887 132.68 10.887 135.529 10.4117V33.9511Z" fill="black"/>
<path d="M112.337 34.7885C109.908 34.7885 107.655 33.77 106.042 31.9819L105.667 33.9511H96.6113V2.03705H106.661V9.57419L106.506 11.7244C108.096 10.0721 110.327 9.39312 112.293 9.39312C118.676 9.39312 123.292 14.78 123.292 22.0682C123.292 29.5827 118.455 34.7885 112.337 34.7885ZM109.996 25.9839C111.829 25.9839 113.397 24.739 113.397 22.0682C113.397 19.5558 111.895 18.1978 109.974 18.1978C108.052 18.1978 106.595 19.8501 106.595 22.0682C106.595 24.4674 108.163 25.9839 109.996 25.9839Z" fill="black"/>
<path d="M81.5251 34.7886C74.9874 34.7886 68.8473 32.2309 68.8473 23.2452V10.1854H78.8526V22.3851C78.8526 24.5806 79.6036 25.9387 81.5251 25.9387C83.513 25.9387 84.1976 24.4901 84.1976 22.3851V10.1854H94.203V23.2452C94.203 32.2309 87.9303 34.7886 81.5251 34.7886Z" fill="black"/>
<path d="M60.6301 33.9511H50.5806V10.1854H59.6583L60.1 12.743C61.2265 11.1813 62.5738 10.1854 64.8266 10.1854H67.8525V18.1526H65.2683C62.3087 18.1526 60.6301 20.2122 60.6301 23.7658V33.9511Z" fill="black"/>
<path d="M35.9362 34.7885C27.5652 34.7885 22.8828 28.9716 22.8828 22.0908C22.8828 15.2101 27.5652 9.37048 35.9362 9.37048C43.9095 9.37048 48.106 14.1915 49.0336 20.2575H39.0504C38.5424 18.8315 37.4822 18.2204 36.0466 18.2204C34.3459 18.2204 32.7998 19.5558 32.7998 22.0456C32.7998 24.6485 34.3017 25.9612 36.0466 25.9612C37.3939 25.9612 38.5866 25.3728 39.0504 23.5847H49.0336C48.2385 29.8317 43.9316 34.7885 35.9362 34.7885Z" fill="black"/>
<path d="M11.0655 34.7885C2.78294 34.7885 0 30.3975 0 26.0744L8.83473 26.0971C8.92308 27.1156 9.51942 27.8851 11.0655 27.8851C12.4349 27.8851 12.8766 27.4098 12.8766 26.7308C12.8766 25.9386 12.1036 25.6217 9.34273 25.3728C3.93146 24.8748 0.463823 22.8151 0.463823 17.7225C0.463823 12.0187 4.72658 9.37048 11.1318 9.37048C17.1615 9.37048 21.6672 12.5619 21.6672 17.8583L12.8766 17.813C12.8104 17.0661 12.3024 16.4097 11.0434 16.4097C10.0053 16.4097 9.60777 16.8171 9.60777 17.3603C9.60777 18.1978 9.98325 18.4015 13.6938 18.7863C19.4364 19.3974 22.2856 21.2307 22.2856 26.2555C22.2856 32.4572 16.9627 34.7885 11.0655 34.7885Z" fill="black"/>
</svg>
